<svg width="202" height="202" viewBox="0 0 202 202" fill="none" xmlns="http://www.w3.org/2000/svg">
<g clip-path="url(#clip0_1_2)">
<circle cx="101" cy="101" r="100" stroke="#B00B53" stroke-width="2"/>
<path d="M101.659 90.959C106.591 90.959 110.766 90.0068 114.184 88.1025C115.746 87.2236 116.527 85.5635 116.527 83.1221V81.3643C116.43 80.6807 116.381 80.2168 116.381 79.9727C116.381 76.9941 115.111 74.5283 112.572 72.5752C110.082 70.6221 107.25 69.6455 104.076 69.6455H103.563L103.124 69.7188H102.099C101.513 69.8164 101.049 69.8652 100.707 69.8652C96.8496 69.8652 93.1875 71.8184 89.7207 75.7246C86.2539 79.6309 84.5205 83.8789 84.5205 88.4688V89.2744C84.5205 91.0811 85.9121 91.9844 88.6953 91.9844H91.332L91.7715 91.9111L95.5068 91.6182C96.0928 91.5205 96.7764 91.4473 97.5576 91.3984C98.3877 91.3008 99.1934 91.2031 99.9746 91.1055C100.805 91.0078 101.366 90.959 101.659 90.959ZM102.245 133.439H99.0957C95.1895 133.439 91.2832 132.561 87.377 130.803C79.9551 127.434 74.9014 121.525 72.2158 113.078C70.751 108.586 70.0186 103.972 70.0186 99.2354V96.0127C70.0186 91.667 70.9707 87.0039 72.875 82.0234C76.4395 72.7461 82.2744 66.374 90.3799 62.9072C94.7744 61.0518 99.3643 60.124 104.149 60.124H105.688C112.475 60.124 117.943 62.2725 122.094 66.5693C126.244 70.8662 128.319 76.3594 128.319 83.0488V84.5869C128.319 89.5186 126.513 93.0098 122.899 95.0605C120.507 96.4277 114.477 98.0879 104.809 100.041C95.1406 101.945 90.1602 102.946 89.8672 103.044C87.0352 104.069 85.6191 105.388 85.6191 106.999C85.6191 110.759 87.2305 114.079 90.4531 116.96C93.7246 119.841 98.0703 121.281 103.49 121.281C106.371 121.281 110.302 120.622 115.282 119.304C120.312 117.985 123.485 117.326 124.804 117.326C127.001 117.326 128.1 118.62 128.1 121.208C128.1 123.796 125.365 126.481 119.896 129.265C114.477 132.048 108.593 133.439 102.245 133.439Z" fill="#B00B69"/>
</g>
<defs>
<clipPath id="clip0_1_2">
<rect width="202" height="202" fill="white"/>
</clipPath>
</defs>
</svg>
